<svg width="952" height="182" viewBox="0 0 952 182" fill="none" xmlns="http://www.w3.org/2000/svg">
<g clip-path="url(#clip0_358_40)">
<path d="M91.15 107.8C81.73 107.8 74.06 100.13 74.06 90.7101C74.06 81.2901 81.73 73.6201 91.15 73.6201C96.24 73.6201 101.04 75.8701 104.3 79.7901C105.07 80.7201 104.95 82.1001 104.02 82.8801C103.09 83.6501 101.71 83.5301 100.93 82.6001C98.5 79.6801 94.94 78.0101 91.15 78.0101C84.14 78.0101 78.44 83.7101 78.44 90.7201C78.44 97.7301 84.14 103.43 91.15 103.43C96.78 103.43 101.67 99.8101 103.31 94.4301C103.67 93.2301 103.86 91.9901 103.86 90.7201C103.86 89.4501 104.84 88.5301 106.05 88.5301C107.26 88.5301 108.24 89.5101 108.24 90.7201C108.24 92.4201 107.99 94.1001 107.5 95.7101C105.29 102.95 98.72 107.81 91.15 107.81V107.8Z" fill="#0C0046"/>
<path d="M97.92 125.24C96.9 125.24 95.99 124.53 95.78 123.5C95.53 122.32 96.29 121.15 97.48 120.91C114.13 117.42 124.83 101.05 121.35 84.4001C117.86 67.7501 101.49 57.0501 84.84 60.5301C76.78 62.2201 69.85 66.9501 65.34 73.8401C60.83 80.7401 59.28 88.9701 60.97 97.0401C61.22 98.2201 60.46 99.3901 59.27 99.6301C58.09 99.8801 56.92 99.1201 56.68 97.9301C54.75 88.7201 56.53 79.3101 61.67 71.4401C66.82 63.5601 74.73 58.1701 83.93 56.2401C102.95 52.2601 121.65 64.4901 125.63 83.5001C129.61 102.51 117.38 121.22 98.37 125.2C98.22 125.23 98.07 125.25 97.92 125.25V125.24Z" fill="#0C0046"/>
<path d="M98.31 152.54C97.43 152.54 96.68 151.88 96.57 150.99C96.46 150.03 97.14 149.16 98.11 149.04C127.62 145.56 149.87 120.49 149.87 90.73C149.87 58.35 123.53 32.01 91.15 32.01C58.77 32.01 32.43 58.35 32.43 90.73C32.43 101.94 35.6 112.83 41.59 122.24C42.11 123.06 41.87 124.14 41.05 124.66C40.23 125.18 39.15 124.94 38.63 124.12C32.28 114.15 28.92 102.6 28.92 90.73C28.92 56.42 56.83 28.5 91.15 28.5C125.46 28.5 153.38 56.41 153.38 90.73C153.38 122.27 129.8 148.83 98.52 152.52C98.45 152.52 98.38 152.53 98.31 152.53V152.54Z" fill="#0C0046"/>
<path d="M82.09 152.11C82.01 152.11 81.92 152.11 81.83 152.09C69.4 150.27 57.94 144.77 48.68 136.2C47.97 135.54 47.93 134.43 48.58 133.72C49.24 133.01 50.35 132.97 51.06 133.62C59.8 141.71 70.61 146.89 82.34 148.61C83.3 148.75 83.96 149.64 83.82 150.6C83.69 151.47 82.94 152.1 82.09 152.1V152.11Z" fill="#0C0046"/>
<path d="M91.15 139.02C74.37 139.02 58.02 130.34 49.01 114.82C36.63 93.4999 42.14 66.2899 61.83 51.5099C62.41 51.0699 63.24 51.1899 63.67 51.7699C64.11 52.3499 63.99 53.1699 63.41 53.6099C44.78 67.5799 39.57 93.3299 51.28 113.49C64.02 135.43 92.24 142.91 114.18 130.17C136.12 117.43 143.6 89.2099 130.86 67.2699C126.45 59.6799 120.01 53.5399 112.25 49.5199C111.61 49.1899 111.35 48.3899 111.69 47.7499C112.02 47.0999 112.82 46.8499 113.46 47.1899C121.67 51.4399 128.47 57.9199 133.13 65.9499C139.66 77.1899 141.42 90.2899 138.08 102.85C134.75 115.41 126.73 125.92 115.49 132.44C107.82 136.89 99.43 139.01 91.14 139.01L91.15 139.02Z" fill="#0C0046"/>
<path d="M150.54 45.7099C150.54 45.7099 150.63 45.6299 150.68 45.5899C151.26 45.1499 152.08 45.2699 152.52 45.8499C162.86 59.5099 168.19 75.8099 167.94 92.9899C167.78 104.02 165.32 114.63 160.64 124.53C160.33 125.19 159.55 125.47 158.89 125.16C158.23 124.85 157.95 124.07 158.26 123.41C162.78 113.86 165.16 103.61 165.31 92.9599C165.55 76.3799 160.4 60.6399 150.42 47.4499C150.02 46.9199 150.08 46.1899 150.54 45.7299V45.7099Z" fill="#0A0043"/>
<path d="M35.88 36.25C49.8 22.33 69.36 14.79 92.68 14.66C110.61 14.56 128.29 21.35 142.47 33.77C143.38 34.57 143.47 35.95 142.67 36.86C141.89 37.76 140.49 37.86 139.58 37.06C126.21 25.34 109.56 18.94 92.7 19.03C63.14 19.2 40.02 31.85 27.58 54.67C14.88 77.98 15.65 108.24 29.5 129.96C36.18 140.44 45.02 149.06 55.07 154.9C65.8 161.13 78.06 164.52 90.55 164.7C115.61 165.06 138.79 152.76 152.56 131.78C153.22 130.77 154.58 130.49 155.59 131.15C156.6 131.81 156.88 133.17 156.22 134.18C141.62 156.42 117.05 169.47 90.48 169.08C77.25 168.89 64.24 165.29 52.87 158.69C42.22 152.5 32.86 143.38 25.81 132.31C11.13 109.28 10.3 77.23 23.74 52.57C27.09 46.42 31.17 40.96 35.89 36.24L35.88 36.25Z" fill="#FD7F41"/>
<path d="M12.84 134.65C11.9 134.65 10.98 134.14 10.51 133.25C3.64 120.23 0 105.53 0 90.7101C0 75.8901 3.96 59.8901 11.46 46.4201C12.17 45.1501 13.77 44.7001 15.04 45.4001C16.31 46.1101 16.76 47.7101 16.06 48.9801C8.99 61.6701 5.26 76.1001 5.26 90.7101C5.26 105.32 8.69 118.53 15.16 130.79C15.84 132.07 15.35 133.66 14.06 134.34C13.67 134.55 13.25 134.65 12.83 134.65H12.84Z" fill="#0C0046"/>
<path d="M91.15 181.42C62.59 181.42 36.27 168.37 18.94 145.62C18.21 144.66 18.39 143.28 19.36 142.55C20.32 141.82 21.7 142 22.43 142.97C38.92 164.62 63.97 177.04 91.15 177.04C138.75 177.04 177.48 138.31 177.48 90.7101C177.48 67.1001 168.13 45.0601 151.16 28.6501C150.29 27.8101 150.27 26.4201 151.11 25.5501C151.95 24.6801 153.34 24.6601 154.21 25.5001C172.04 42.7501 181.86 65.9101 181.86 90.7101C181.86 140.73 141.17 181.42 91.15 181.42Z" fill="#0C0046"/>
<path d="M146.44 23.77C145.96 23.77 145.48 23.61 145.07 23.29C129.62 10.92 110.97 4.37999 91.14 4.37999C84.19 4.37999 77.27 5.20999 70.58 6.83999C69.4 7.12999 68.22 6.40999 67.93 5.22999C67.64 4.04999 68.36 2.86999 69.54 2.57999C76.57 0.85999 83.83 -0.0100098 91.14 -0.0100098C111.98 -0.0100098 131.57 6.85999 147.81 19.86C148.75 20.62 148.91 22 148.15 22.94C147.72 23.48 147.08 23.76 146.44 23.76V23.77Z" fill="#0C0046"/>
<path d="M327.49 68.1901H314.87C307.36 54.4501 293.15 45.0301 273.82 45.0301C246.19 45.0301 227.02 65.4801 227.02 91.9901C227.02 118.5 246.19 138.95 273.82 138.95C293.15 138.95 307.36 129.53 314.87 115.79H327.49C319.34 135.92 299.54 150.13 273.82 150.13C239.32 150.13 214.24 124.89 214.24 91.9901C214.24 59.0901 239.32 33.8401 273.82 33.8401C299.54 33.8401 319.35 48.0601 327.49 68.1801V68.1901Z" fill="#0A0043"/>
<path d="M423.49 69.3101V147.9H411.51V132.09C406.72 140.88 394.58 149.82 378.6 149.82C354.48 149.82 338.35 130.33 338.35 108.61C338.35 86.8901 354.48 67.4001 378.6 67.4001C394.57 67.4001 407.03 76.1901 411.35 85.2901V69.3201H423.49V69.3101ZM380.68 139.6C395.86 139.6 411.03 128.42 411.03 108.61C411.03 88.8001 395.86 77.6201 380.68 77.6201C362.47 77.6201 350.81 91.8401 350.81 108.61C350.81 125.38 362.47 139.6 380.68 139.6Z" fill="#0A0043"/>
<path d="M457.51 147.9H445.05V69.3101H457.03V84.6401C461.02 73.4601 471.57 67.3901 485.14 67.3901C497.92 67.3901 507.18 74.4201 512.14 85.7601C517.41 74.5801 527.95 67.3901 542.97 67.3901C561.66 67.3901 573.48 82.4101 573.48 102.85V147.9H561.18V105.25C561.18 89.7601 554.79 78.5701 539.46 78.5701C525.56 78.5701 515.5 89.2701 515.5 104.29V147.9H503.2V105.25C503.2 89.7601 496.81 78.5701 481.48 78.5701C467.26 78.5701 457.52 90.0701 457.52 104.93V147.9H457.51Z" fill="#0A0043"/>
<path d="M606.7 85.28C611.01 76.17 623.15 67.39 639.13 67.39C663.25 67.39 679.38 86.88 679.38 108.6C679.38 130.32 663.25 149.81 639.13 149.81C623.16 149.81 611.02 140.86 606.22 132.08V147.89H594.24V31.28H606.7V85.27V85.28ZM637.05 77.61C621.88 77.61 606.7 88.79 606.7 108.6C606.7 128.41 621.88 139.59 637.05 139.59C655.26 139.59 666.92 125.37 666.92 108.6C666.92 91.83 655.26 77.61 637.05 77.61Z" fill="#0A0043"/>
<path d="M702.06 34.3201C706.85 34.3201 710.21 37.8301 710.21 42.3101C710.21 46.7901 706.86 50.3001 702.06 50.3001C697.27 50.3001 693.91 46.7901 693.91 42.3101C693.91 37.8301 697.26 34.3201 702.06 34.3201ZM695.83 147.89V69.3101H708.29V147.9H695.83V147.89Z" fill="#0A0043"/>
<path d="M789.11 69.3101H801.57V147.9H789.59V132.57C784.96 143.59 774.42 149.82 760.52 149.82C741.35 149.82 729.53 134.8 729.53 114.36V69.3101H741.99V112.28C741.99 127.78 748.38 138.96 764.35 138.96C779.05 138.96 789.11 127.46 789.11 112.6V69.3101Z" fill="#0A0043"/>
<path d="M835.59 147.9H823.13V69.3101H835.11V84.6401C839.1 73.4601 849.65 67.3901 863.22 67.3901C876 67.3901 885.26 74.4201 890.22 85.7601C895.49 74.5801 906.03 67.3901 921.05 67.3901C939.74 67.3901 951.56 82.4101 951.56 102.85V147.9H939.26V105.25C939.26 89.7601 932.87 78.5701 917.54 78.5701C903.64 78.5701 893.58 89.2701 893.58 104.29V147.9H881.28V105.25C881.28 89.7601 874.89 78.5701 859.56 78.5701C845.34 78.5701 835.6 90.0701 835.6 104.93V147.9H835.59Z" fill="#0A0043"/>
</g>
<defs>
<clipPath id="clip0_358_40">
<rect width="951.56" height="181.42" fill="white"/>
</clipPath>
</defs>
</svg>
